<?xml version="1.0" standalone="no"?>
<!DOCTYPE svg PUBLIC "-//W3C//DTD SVG 1.1//EN" "http://www.w3.org/Graphics/SVG/1.1/DTD/svg11.dtd">
<svg t="1625030918114" class="icon" viewBox="0 0 1024 1024" version="1.1" xmlns="http://www.w3.org/2000/svg" p-id="1703" xmlns:xlink="http://www.w3.org/1999/xlink" width="200" height="200">
  <defs>
    <style type="text/css"></style>
  </defs>
  <path d="M130.9184 331.0592l438.528-206.3872c43.1104-20.3264 94.6176-2.9184 116.5312 39.424l105.728 203.8272H130.9184v-36.864z" fill="#F2BB33" p-id="1704"></path>
  <path d="M167.0656 346.8288l382.976-180.2752c37.6832-17.7152 82.6368-2.5088 101.7856 34.4064l92.3648 178.0224H167.0656v-32.1536z" fill="#F7CA44" p-id="1705"></path>
  <path d="M217.344 364.544l323.7888-152.4224c31.8464-15.0016 69.8368-2.1504 86.0672 29.0816l78.08 150.4768h-487.936v-27.136z" fill="#FFCE55" p-id="1706"></path>
  <path d="M858.0608 899.072H160c-57.9584 0-104.9088-46.9504-104.9088-104.9088V381.3888C55.0912 323.4304 102.0416 276.48 160 276.48h698.0608c57.9584 0 104.9088 46.9504 104.9088 104.9088v412.7744c0 57.9072-47.0016 104.9088-104.9088 104.9088z" fill="#4058E2" p-id="1707"></path>
  <path d="M791.552 850.688H226.5088c-81.664 0-147.8656-66.2016-147.8656-147.8656V424.3456C78.592 342.6816 144.8448 276.48 226.5088 276.48H791.552c81.664 0 147.8656 66.2016 147.8656 147.8656v278.4256c0 81.7152-66.2016 147.9168-147.8656 147.9168z" fill="#5565E9" p-id="1708"></path>
  <path d="M791.3984 771.584H226.6624c-62.8224 0-113.7152-50.8928-113.7152-113.7152V403.6096c0-62.8224 50.8928-113.7152 113.7152-113.7152h564.736c62.8224 0 113.7152 50.8928 113.7152 113.7152v254.2592c0 62.8224-50.8928 113.7152-113.7152 113.7152z" fill="#6675FE" p-id="1709"></path>
  <path d="M764.4672 641.1776H253.5936c-62.8224 0-113.7152-50.8928-113.7152-113.7152V419.9936c0-62.8224 50.8928-113.7152 113.7152-113.7152h510.8736c62.8224 0 113.7152 50.8928 113.7152 113.7152v107.4688c0 62.8224-50.944 113.7152-113.7152 113.7152z" fill="#768AFF" p-id="1710"></path>
  <path d="M756.0704 482.7136c-78.2336 0-141.9264 59.8528-141.9264 133.4272s63.6416 133.4272 141.9264 133.4272h102.6048c25.7024-17.7664 43.1616-45.4144 45.9776-77.0048h-148.5824c-33.0752 0-60.0064-25.2928-60.0064-56.4224 0-31.1296 26.9312-56.4224 60.0064-56.4224h149.0432V482.7136h-149.0432z" fill="#5565E9" p-id="1711"></path>
  <path d="M236.5952 381.4912H146.5856c-4.352 12.032-6.7072 24.9856-6.7072 38.5024V493.056h96.7168c30.8224 0 55.808-24.9856 55.808-55.7568-0.0512-30.8224-24.9856-55.808-55.808-55.808z" fill="#6675FE" p-id="1712"></path>
  <path d="M366.592 491.3152h-24.5248c-30.3104 0-54.8864-24.576-54.8864-54.8864 0-30.3104 24.576-54.8864 54.8864-54.8864h24.5248c30.3104 0 54.8864 24.576 54.8864 54.8864 0.0512 30.3104-24.576 54.8864-54.8864 54.8864z" fill="#6675FE" p-id="1713"></path>
  <path d="M363.4688 470.0672h-18.2784c-22.6304 0-40.96-18.3296-40.96-40.96s18.3296-40.96 40.96-40.96h18.2784c22.6304 0 40.96 18.3296 40.96 40.96s-18.3296 40.96-40.96 40.96z" fill="#F2BB33" p-id="1714"></path>
  <path d="M363.4688 454.7072h-18.2784c-14.1312 0-25.6-11.4688-25.6-25.6s11.4688-25.6 25.6-25.6h18.2784c14.1312 0 25.6 11.4688 25.6 25.6s-11.4688 25.6-25.6 25.6z" fill="#F7CA44" p-id="1715"></path>
  <path d="M238.08 388.1472H55.0912v81.92H238.08c22.6304 0 40.96-18.3296 40.96-40.96s-18.3296-40.96-40.96-40.96z" fill="#F2BB33" p-id="1716"></path>
  <path d="M238.08 403.5072H55.0912v51.2H238.08c14.1312 0 25.6-11.4688 25.6-25.6s-11.4176-25.6-25.6-25.6z" fill="#F7CA44" p-id="1717"></path>
  <path d="M238.08 416.3072H55.0912v25.6H238.08a12.8 12.8 0 0 0 0-25.6z" fill="#FDF2B1" p-id="1718"></path>
  <path d="M756.0704 478.4128c-78.2336 0-141.9264 63.6416-141.9264 141.9264 0 7.1168 0.5632 14.08 1.536 20.8896h84.1728a58.88 58.88 0 0 1-3.84-20.8896c0-33.0752 26.9312-60.0064 60.0064-60.0064h117.2992c3.1232-10.3936 4.8128-21.4016 4.8128-32.8192v-49.1008h-122.0608z" fill="#5565E9" p-id="1719"></path>
  <path d="M962.9696 649.5744h-206.8992c-33.0752 0-60.0064-26.9312-60.0064-60.0064 0-33.0752 26.9312-60.0064 60.0064-60.0064h206.8992v-81.92h-206.8992c-78.2336 0-141.9264 63.6416-141.9264 141.9264 0 78.2336 63.6416 141.9264 141.9264 141.9264h206.8992v-81.92z" fill="#F2BB33" p-id="1720"></path>
  <path d="M962.9696 664.9344h-206.8992c-41.5744 0-75.3664-33.792-75.3664-75.3664 0-41.5744 33.792-75.3664 75.3664-75.3664h206.8992v-51.2h-206.8992c-69.7856 0-126.5664 56.7808-126.5664 126.5664s56.7808 126.5664 126.5664 126.5664h206.8992v-51.2z" fill="#F7CA44" p-id="1721"></path>
  <path d="M890.4192 703.3344h-134.3488c-62.72 0-113.7664-51.0464-113.7664-113.7664s51.0464-113.7664 113.7664-113.7664h37.632a12.8 12.8 0 0 1 0 25.6h-37.632c-48.5888 0-88.1664 39.5264-88.1664 88.1664s39.5264 88.1664 88.1664 88.1664h134.3488a12.8 12.8 0 0 1 0 25.6zM898.9184 501.4528h-47.0528a12.8 12.8 0 0 1 0-25.6h47.0528a12.8 12.8 0 0 1 0 25.6zM363.4688 441.9072h-18.2784a12.8 12.8 0 0 1 0-25.6h18.2784a12.8 12.8 0 0 1 0 25.6z" fill="#FDF2B1" p-id="1722"></path>
  <path d="M760.0128 591.6672m-36.864 0a36.864 36.864 0 1 0 73.728 0 36.864 36.864 0 1 0-73.728 0Z" fill="#F2BB33" p-id="1723"></path>
  <path d="M760.0128 591.6672m-26.1632 0a26.1632 26.1632 0 1 0 52.3264 0 26.1632 26.1632 0 1 0-52.3264 0Z" fill="#F7CA44" p-id="1724"></path>
</svg>